<?xml version="1.0" encoding="utf-8"?>
<!-- Generator: Adobe Illustrator 22.0.0, SVG Export Plug-In . SVG Version: 6.00 Build 0)  -->
<svg version="1.1" id="Capa_1" xmlns="http://www.w3.org/2000/svg" xmlns:xlink="http://www.w3.org/1999/xlink" x="0px" y="0px"
	 viewBox="0 0 48 48" style="enable-background:new 0 0 48 48;" xml:space="preserve">
<style type="text/css">
	.st0{fill:#212121;}
</style>
<path class="st0" d="M26.8,24L46.4,4.4C46.8,4,47,3.5,47,2.9c0-0.5-0.2-1-0.6-1.3C46,1.2,45.5,1,44.9,1c-0.5,0-1,0.2-1.3,0.6
	L24,21.1L4.4,1.6C4,1.2,3.5,1,2.9,1C2.4,1,2,1.2,1.6,1.6C1.2,2,1,2.5,1,3.1c0,0.5,0.2,1,0.6,1.3L21.1,24L1.6,43.5
	C1.2,43.9,1,44.4,1,45c0,0.5,0.2,1,0.6,1.3l0.1,0.1C2,46.8,2.5,47,3,47c0.5,0,1-0.2,1.4-0.6L24,26.8l19.6,19.6
	c0.4,0.4,1,0.6,1.4,0.6s0.9-0.2,1.4-0.6c0.4-0.4,0.6-0.9,0.6-1.5c0-0.5-0.2-1-0.6-1.3L26.8,24z"/>
</svg>
